Coordinates
version=1
nRows=13
nColumns=40
inDegrees=yes

Units are S.I. units (second, meters, Newtons, ...)
If the header above contains a line with 'inDegrees', this indicates whether rotational values are in degrees (yes) or radians (no).

endheader
time	pelvis_tilt	pelvis_list	pelvis_rotation	pelvis_tx	pelvis_ty	pelvis_tz	hip_flexion_r	hip_adduction_r	hip_rotation_r	knee_angle_r	knee_angle_r_beta	ankle_angle_r	subtalar_angle_r	mtp_angle_r	hip_flexion_l	hip_adduction_l	hip_rotation_l	knee_angle_l	knee_angle_l_beta	ankle_angle_l	subtalar_angle_l	mtp_angle_l	lumbar_extension	lumbar_bending	lumbar_rotation	arm_flex_r	arm_add_r	arm_rot_r	elbow_flex_r	pro_sup_r	wrist_flex_r	wrist_dev_r	arm_flex_l	arm_add_l	arm_rot_l	elbow_flex_l	pro_sup_l	wrist_flex_l	wrist_dev_l
      1.08000000	      0.92587693	      8.52649688	    -87.38285553	      0.20356074	      1.00118921	      0.60764543	     30.15125977	     -3.18848937	     -4.98261287	     56.20091150	      0.98089095	     -1.92132957	      0.00000000	      0.00000000	      9.09116068	      4.89374700	      2.89765795	      3.94618259	      0.06887388	      1.57685722	      0.00000000	      0.00000000	      0.49130067	     -2.72511076	     -5.39226259	      0.00000000	      0.00000000	      0.00000000	      0.00000000	      0.00000000	      0.00000000	      0.00000000	      0.00000000	      0.00000000	      0.00000000	      0.00000000	      0.00000000	      0.00000000	      0.00000000
      1.09000000	      0.63466238	      8.59756406	    -86.90451717	      0.20460698	      1.00128680	      0.62106665	     31.05384583	     -3.13812610	     -5.52100254	     54.02036373	      0.94283321	     -1.11816330	      0.00000000	      0.00000000	      7.99533955	      4.65245195	      3.54172576	      3.38069718	      0.05900430	      2.07126275	      0.00000000	      0.00000000	      0.60313800	     -2.37598025	     -5.74765543	      0.00000000	      0.00000000	      0.00000000	      0.00000000	      0.00000000	      0.00000000	      0.00000000	      0.00000000	      0.00000000	      0.00000000	      0.00000000	      0.00000000	      0.00000000	      0.00000000
      1.10000000	      0.38881585	      8.41558125	    -86.30991703	      0.20585840	      1.00140150	      0.63470813	     31.51167584	     -3.22321296	     -6.23143434	     51.54021934	      0.89954652	     -0.48340933	      0.00000000	     -0.00000000	      6.59355013	      4.44496037	      4.26340527	      2.75835877	      0.04814244	      2.53523797	      0.00000000	      0.00000000	      0.41016956	     -2.05734689	     -6.29489589	     -0.00000000	      0.00000000	      0.00000000	      0.00000000	      0.00000000	     -0.00000000	     -0.00000000	      0.00000000	      0.00000000	      0.00000000	      0.00000000	      0.00000000	     -0.00000000	     -0.00000000
      1.11000000	      0.21066364	      8.35449954	    -85.74236781	      0.20701069	      1.00097822	      0.64826830	     32.02384396	     -3.34800466	     -6.86480269	     48.86126179	      0.85278989	      0.08659865	      0.00000000	      0.00000000	      5.37027511	      4.28964621	      4.95412175	      2.22587004	      0.03884876	      3.04296122	      0.00000000	      0.00000000	      0.34750773	     -1.83643610	     -6.78101647	      0.00000000	      0.00000000	      0.00000000	      0.00000000	      0.00000000	      0.00000000	      0.00000000	      0.00000000	      0.00000000	      0.00000000	      0.00000000	      0.00000000	      0.00000000	      0.00000000
      1.12000000	      0.09389509	      8.29942260	    -85.15348984	      0.20817114	      1.00019927	      0.66186612	     32.43143994	     -3.54997870	     -7.52811277	     45.95881681	      0.80213267	      0.52715491	      0.00000000	      0.00000000	      4.16261521	      4.17937342	      5.65204455	      1.72028473	      0.03002463	      3.56818598	      0.00000000	      0.00000000	      0.27724166	     -1.69110343	     -7.28275069	      0.00000000	      0.00000000	      0.00000000	      0.00000000	      0.00000000	      0.00000000	      0.00000000	      0.00000000	      0.00000000	      0.00000000	      0.00000000	      0.00000000	      0.00000000	      0.00000000
      1.13000000	      0.41574802	      8.66483990	    -84.77679341	      0.20926252	      0.99832511	      0.67504042	     33.38205702	     -4.16638212	     -7.87656862	     43.15396245	      0.75317873	      0.89857220	      0.00000000	      0.00000000	      3.58584363	      4.56181281	      5.58262948	      1.58038837	      0.02758298	      3.90139687	      0.00000000	     -0.00000000	      0.60159997	     -2.08000466	     -7.50012558	      0.00000000	     -0.00000000	     -0.00000000	      0.00000000	      0.00000000	      0.00000000	     -0.00000000	     -0.00000000	     -0.00000000	      0.00000000	      0.00000000	      0.00000000	     -0.00000000	     -0.00000000
      1.14000000	      0.02919486	      8.21671690	    -83.97164632	      0.21040983	      0.99758206	      0.68920876	     32.97205238	     -4.11908686	     -8.93698064	     39.55241860	      0.69031993	      0.95467705	      0.00000000	     -0.00000000	      1.78671121	      4.06715480	      7.05130169	      0.77099939	      0.01345648	      4.65974179	      0.00000000	      0.00000000	      0.12751062	     -1.59872536	     -8.28710456	     -0.00000000	     -0.00000000	      0.00000000	      0.00000000	      0.00000000	      0.00000000	      0.00000000	     -0.00000000	     -0.00000000	     -0.00000000	      0.00000000	      0.00000000	      0.00000000	     -0.00000000
      1.15000000	      0.08374296	      8.39536952	    -83.42078977	      0.21140362	      0.99549198	      0.70283319	     33.37272788	     -4.46173154	     -9.58301407	     36.10950641	      0.63022978	      0.93107914	     -0.00000000	     -0.00000000	      0.87163063	      4.09340133	      7.69769061	      0.39515948	      0.00689683	      5.31111928	     -0.00000000	     -0.00000000	      0.28062941	     -1.67616954	     -8.74609047	     -0.00000000	     -0.00000000	     -0.00000000	      0.00000000	      0.00000000	      0.00000000	     -0.00000000	      0.00000000	     -0.00000000	     -0.00000000	      0.00000000	      0.00000000	      0.00000000	      0.00000000
      1.16000000	      0.15823149	      8.20867924	    -82.80653996	      0.21242582	      0.99363853	      0.71677787	     33.21697818	     -4.83866827	    -10.53810826	     32.43662280	      0.56612587	      0.74714615	      0.00000000	      0.00000000	     -0.49744717	      4.05982737	      8.42415334	     -0.07035473	     -0.00122792	      5.83057545	      0.00000000	      0.00000000	      0.00086222	     -1.74044168	     -9.31666092	      0.00000000	      0.00000000	      0.00000000	      0.00000000	      0.00000000	      0.00000000	      0.00000000	      0.00000000	      0.00000000	      0.00000000	      0.00000000	      0.00000000	      0.00000000	      0.00000000
      1.17000000	      0.26865949	      8.30045798	    -82.25706862	      0.21329091	      0.99112591	      0.73066470	     33.32574621	     -5.19755835	    -11.38491441	     28.67234719	      0.50042686	      0.44705846	      0.00000000	      0.00000000	     -1.52007378	      4.07413880	      9.07390786	     -0.42921215	     -0.00749117	      6.49313004	      0.00000000	      0.00000000	      0.02948179	     -1.88301668	     -9.78772704	      0.00000000	      0.00000000	      0.00000000	      0.00000000	      0.00000000	      0.00000000	      0.00000000	      0.00000000	      0.00000000	      0.00000000	      0.00000000	      0.00000000	      0.00000000	      0.00000000
      1.18000000	      0.43395976	      8.52379927	    -81.78747788	      0.21395292	      0.98817805	      0.74455451	     33.54531414	     -5.53004242	    -12.08358071	     24.85769302	      0.43384859	      0.14927846	      0.00000000	      0.00000000	     -2.36999731	      4.14579893	      9.66779954	     -0.69782862	     -0.01217941	      7.18851288	      0.00000000	      0.00000000	      0.19157551	     -2.10442997	    -10.22121370	      0.00000000	      0.00000000	      0.00000000	      0.00000000	      0.00000000	      0.00000000	      0.00000000	      0.00000000	      0.00000000	      0.00000000	      0.00000000	      0.00000000	      0.00000000	      0.00000000
      1.19000000	      0.56987187	      8.46155408	    -81.25306904	      0.21458913	      0.98543922	      0.75880316	     33.33516704	     -5.81238361	    -13.07512065	     20.92758616	      0.36525528	     -0.23253790	      0.00000000	      0.00000000	     -3.56771669	      4.10470171	     10.31162437	     -1.02539601	     -0.01789654	      7.84094532	      0.00000000	      0.00000000	      0.02281706	     -2.26054917	    -10.69315839	      0.00000000	      0.00000000	      0.00000000	      0.00000000	      0.00000000	      0.00000000	      0.00000000	      0.00000000	      0.00000000	      0.00000000	      0.00000000	      0.00000000	      0.00000000	      0.00000000
      1.20000000	      0.75048679	      8.65512606	    -80.82883781	      0.21506219	      0.98214234	      0.77301387	     33.41441552	     -6.05224939	    -13.78949494	     17.07425921	      0.29800204	     -0.55127976	      0.00000000	      0.00000000	     -4.42509611	      4.14762702	     10.86265116	     -1.19928934	     -0.02093155	      8.60394230	      0.00000000	      0.00000000	      0.15822501	     -2.48234507	    -11.09512118	      0.00000000	      0.00000000	      0.00000000	      0.00000000	      0.00000000	      0.00000000	      0.00000000	      0.00000000	      0.00000000	      0.00000000	      0.00000000	      0.00000000	      0.00000000	      0.00000000
